<svg width="24" height="24" viewBox="0 0 24 24" fill="none" xmlns="http://www.w3.org/2000/svg">
<path fill-rule="evenodd" clip-rule="evenodd" d="M12.7499 3H11.2499V4.5H9.75V6H11.2499V11.25L5.99991 11.25V9.75H4.49991V11.25L3 11.25V12.75L4.49991 12.75V14.25H5.99991V12.75L11.2499 12.75V18L9.75009 18V16.5H8.25009V18L9.75 18V19.5H11.2499V21H12.7499V12.75L17.9999 12.75V14.25L16.5 14.25V15.75H18V14.25L19.4999 14.25V12.75L21 12.75V11.25L19.4999 11.25V9.75H17.9999V11.25L12.7499 11.25V3ZM12.7501 4.5H14.2501V6H12.7501V4.5ZM15.75 6H14.25V7.5H15.75V6ZM9.75009 6H8.25009V7.5H9.75009V6ZM6.00009 8.25H7.50009V9.75H6.00009V8.25ZM7.50009 14.25H6.00009V15.75H7.50009V14.25ZM12.7501 18L14.25 18V16.5H15.75V18L14.2501 18V19.5H12.7501V18ZM18 8.25H16.5V9.75H18V8.25Z" fill="black"/>
</svg>
