<svg width="24" height="26" viewBox="0 0 24 26" fill="none" xmlns="http://www.w3.org/2000/svg">
<path fill-rule="evenodd" clip-rule="evenodd" d="M5.77778 4H18.2222H20V5.77778V20V21.7778H18.2222H5.77778H4V20V5.77778V4H5.77778ZM18.2222 20V5.77778H5.77778V20H18.2222ZM7.18728 12L8.44436 10.7429L9.51739 11.8159L10.5904 10.7429L11.6633 11.8158L12.7362 10.7429L13.9933 12L12.7362 13.2571L11.6633 12.1842L10.5904 13.2571L9.51739 12.1841L8.44436 13.2571L7.18728 12ZM8.44458 14.6667L7.1875 15.9237L8.44458 17.1808L9.5175 16.1079L10.5904 17.1808L11.8475 15.9237L10.5904 14.6667L9.5175 15.7396L8.44458 14.6667ZM7.1875 7.92375L8.44458 6.66667L9.5175 7.73958L10.5904 6.66667L11.6633 7.73958L12.7362 6.66667L13.8856 7.81597L15.0349 6.66667L16.2919 7.92375L15.0349 9.18083L13.8856 8.03152L12.7362 9.18083L11.6633 8.10791L10.5904 9.18083L9.5175 8.10791L8.44458 9.18083L7.1875 7.92375Z" fill="black"/>
</svg>
