<svg width="20" height="20" viewBox="0 0 20 20" fill="none" xmlns="http://www.w3.org/2000/svg">
<path fill-rule="evenodd" clip-rule="evenodd" d="M9.17294 19H11.0301V17.2H9.17296V13.6H7.31581V17.2H9.17294V19ZM12.8872 4.60001H14.7444V2.80001H12.8872V4.60001ZM12.8873 2.79999H7.31585V0.999989H12.8873V2.79999ZM11.0301 17.2H12.8873V13.6H11.0301V17.2ZM14.7444 13.6H12.8872V10H14.7444L14.7444 13.6ZM14.7444 10H16.6016V4.6H14.7444V10ZM5.45868 4.6L7.31576 4.60001V2.80001H5.45861V4.60001L3.60154 4.6V10H5.45868V4.6ZM5.45861 13.6L7.31576 13.6L7.31576 10H5.45861L5.45861 13.6Z" fill="black"/>
<rect x="9" y="7" width="2" height="2" fill="black"/>
</svg>
