<svg width="24" height="24" viewBox="0 0 24 24" fill="none" xmlns="http://www.w3.org/2000/svg">
<path fill-rule="evenodd" clip-rule="evenodd" d="M7 3H17V5H7V3ZM5 7V5H7V7H5ZM5 17H3V7H5V17ZM7 19H5V17H7V19ZM17 19V21H7V19H17ZM19 17V19H17V17H19ZM19 7H21V17H19V7ZM19 7V5H17V7H19ZM15.0424 11L16.4836 12.3867L15.0969 13.8279L13.6557 12.4412L12.2691 13.8824L10.8279 12.4957L12.2146 11.0545L13.6558 12.4412L15.0424 11ZM9.38667 11.1091L10.8279 12.4958L9.44119 13.937L7.99998 12.5503L9.38667 11.1091Z" fill="black"/>
</svg>
