<svg width="21" height="20" viewBox="0 0 21 20" fill="none" xmlns="http://www.w3.org/2000/svg">
<g id="search">
<path id="Union" fill-rule="evenodd" clip-rule="evenodd" d="M5.63041 1.66667H12.1412V3.33333H5.63041V1.66667ZM4.00271 5V3.33333H5.63041V5H4.00271ZM4.00271 11.6667H2.375V5H4.00271V11.6667ZM5.63041 13.3333H4.00271V11.6667H5.63041V13.3333ZM12.1412 13.3333V15H5.63041V13.3333H12.1412ZM13.7689 11.6667H12.1412L12.1412 13.3333H13.7689V15H15.3966V16.6667H17.0244V18.3333H18.6521V16.6667H17.0244V15H15.3966V13.3333H13.7689V11.6667ZM13.7689 5H15.3966V11.6667H13.7689V5ZM13.7689 5V3.33333H12.1412L12.1412 5H13.7689Z" fill="black"/>
</g>
</svg>
