<svg width="29" height="29" viewBox="0 0 29 29" fill="none" xmlns="http://www.w3.org/2000/svg">
<g clip-path="url(#clip0_835_5198)">
<path fill-rule="evenodd" clip-rule="evenodd" d="M23.1121 11.7996L25.6262 14.3137L23.1121 16.8279L20.5979 14.3137L23.1121 11.7996ZM16.8267 5.51421L14.3125 3.00005L11.7983 5.51421L14.3125 8.02837L16.8267 5.51421ZM8.02707 14.3137L5.51291 11.7996L2.99876 14.3137L5.51291 16.8279L8.02707 14.3137ZM16.8267 23.1133L14.3125 20.5992L11.7983 23.1133L14.3125 25.6275L16.8267 23.1133ZM14.3125 9.28543L15.5696 10.5425L14.3125 11.7996L13.0554 10.5425L14.3125 9.28543ZM15.5696 13.0567L14.3125 11.7996L13.0554 13.0567L14.3125 14.3137L15.5696 13.0567ZM11.7984 14.3138L13.0554 13.0567L14.3125 14.3137L15.5696 13.0567L16.8266 14.3138L15.5696 15.5708L15.5696 15.5709L14.3125 16.8279L13.0554 15.5709L13.0554 15.5708L11.7984 14.3138ZM15.5696 18.085L14.3125 16.8279L13.0554 18.085L14.3125 19.3421L15.5696 18.085ZM18.0838 13.0567L19.3408 14.3138L18.0838 15.5709L16.8267 14.3138L18.0838 13.0567ZM11.7983 14.3138L10.5412 13.0567L9.28415 14.3138L10.5412 15.5709L11.7983 14.3138Z" fill="black"/>
</g>
<defs>
<clipPath id="clip0_835_5198">
<rect width="20" height="20" fill="white" transform="translate(14.1406) rotate(45)"/>
</clipPath>
</defs>
</svg>
