<svg width="36" height="36" viewBox="0 0 36 36" fill="none" xmlns="http://www.w3.org/2000/svg">
<g filter="url(#filter0_ii_596_3206)">
<rect width="36" height="36" rx="1" fill="#B8B8B8"/>
</g>
<g clip-path="url(#clip0_596_3206)">
<path fill-rule="evenodd" clip-rule="evenodd" d="M27.1121 15.7996L29.6262 18.3137L27.1121 20.8279L24.5979 18.3137L27.1121 15.7996ZM20.8267 9.51421L18.3125 7.00005L15.7983 9.51421L18.3125 12.0284L20.8267 9.51421ZM12.0271 18.3137L9.51291 15.7996L6.99876 18.3137L9.51291 20.8279L12.0271 18.3137ZM20.8267 27.1133L18.3125 24.5992L15.7983 27.1133L18.3125 29.6275L20.8267 27.1133ZM18.3125 13.2854L19.5696 14.5425L18.3125 15.7996L17.0554 14.5425L18.3125 13.2854ZM19.5696 17.0567L18.3125 15.7996L17.0554 17.0567L18.3125 18.3137L19.5696 17.0567ZM15.7984 18.3138L17.0554 17.0567L18.3125 18.3137L19.5696 17.0567L20.8266 18.3138L19.5696 19.5708L19.5696 19.5709L18.3125 20.8279L17.0554 19.5709L17.0554 19.5708L15.7984 18.3138ZM19.5696 22.085L18.3125 20.8279L17.0554 22.085L18.3125 23.3421L19.5696 22.085ZM22.0838 17.0567L23.3408 18.3138L22.0838 19.5709L20.8267 18.3138L22.0838 17.0567ZM15.7983 18.3138L14.5412 17.0567L13.2842 18.3138L14.5412 19.5709L15.7983 18.3138Z" fill="black"/>
</g>
<defs>
<filter id="filter0_ii_596_3206" x="-1" y="-1" width="38" height="38" filterUnits="userSpaceOnUse" color-interpolation-filters="sRGB">
<feFlood flood-opacity="0" result="BackgroundImageFix"/>
<feBlend mode="normal" in="SourceGraphic" in2="BackgroundImageFix" result="shape"/>
<feColorMatrix in="SourceAlpha" type="matrix" values="0 0 0 0 0 0 0 0 0 0 0 0 0 0 0 0 0 0 127 0" result="hardAlpha"/>
<feOffset dx="-2" dy="-2"/>
<feGaussianBlur stdDeviation="0.5"/>
<feComposite in2="hardAlpha" operator="arithmetic" k2="-1" k3="1"/>
<feColorMatrix type="matrix" values="0 0 0 0 0 0 0 0 0 0 0 0 0 0 0 0 0 0 0.8 0"/>
<feBlend mode="normal" in2="shape" result="effect1_innerShadow_596_3206"/>
<feColorMatrix in="SourceAlpha" type="matrix" values="0 0 0 0 0 0 0 0 0 0 0 0 0 0 0 0 0 0 127 0" result="hardAlpha"/>
<feOffset dx="2" dy="2"/>
<feGaussianBlur stdDeviation="0.5"/>
<feComposite in2="hardAlpha" operator="arithmetic" k2="-1" k3="1"/>
<feColorMatrix type="matrix" values="0 0 0 0 1 0 0 0 0 1 0 0 0 0 1 0 0 0 0.5 0"/>
<feBlend mode="normal" in2="effect1_innerShadow_596_3206" result="effect2_innerShadow_596_3206"/>
</filter>
<clipPath id="clip0_596_3206">
<rect width="20" height="20" fill="white" transform="translate(18.1406 4) rotate(45)"/>
</clipPath>
</defs>
</svg>
