<svg width="20" height="20" viewBox="0 0 20 20" fill="none" xmlns="http://www.w3.org/2000/svg">
<path fill-rule="evenodd" clip-rule="evenodd" d="M12.5 1.6665H14.1667V3.33317H15.8333H17.5V4.99984V6.6665V8.33317V16.6665V18.3332L15.8333 18.3332H4.16667L2.5 18.3332V16.6665V8.33317V6.6665V4.99984V3.33317H4.16667H5.83333V1.6665H7.5V3.33317H12.5V1.6665ZM7.5 4.99984H5.83333H4.16667V6.6665H15.8333V4.99984H14.1667H12.5H7.5ZM4.16667 8.33317V16.6665H15.8333V8.33317H4.16667ZM5.83333 9.99984H7.5V11.6665H5.83333V9.99984ZM10.8333 9.99984H9.16667V11.6665H10.8333V9.99984ZM12.5 9.99984H14.1667V11.6665H12.5V9.99984ZM7.5 13.3332H5.83333V14.9998H7.5V13.3332ZM9.16667 13.3332H10.8333V14.9998H9.16667V13.3332ZM14.1667 13.3332H12.5V14.9998H14.1667V13.3332Z" fill="black"/>
</svg>
